<?xml version="1.0" encoding="UTF-8" standalone="no"?>
<!-- Created with Inkscape (http://www.inkscape.org/) -->

<svg
   width="66.145836mm"
   height="96.14592mm"
   viewBox="0 0 66.145835 96.145921"
   version="1.1"
   id="svg5"
   xmlns="http://www.w3.org/2000/svg"
  >
  <defs
     id="defs2" />
  <g
     id="layer1"
     transform="translate(-24.459959,-99.894913)">
    <path
       id="rect846-3"
       style="fill:#00bcc4;fill-opacity:1;stroke:none;stroke-width:0.390799"
       d="M 249.9707 0 C 249.9707 0 218.26251 69.304117 124.99219 53.683594 C 31.721863 38.063071 0.01171875 107.36523 0.01171875 107.36523 L 0.01171875 124.36133 C 0.011861694 124.36104 0.04052971 124.31153 0.041015625 124.31055 L 0.041015625 112.14648 C 0.041015625 112.14648 31.751171 49.191002 125.02148 63.380859 C 217.839 77.501868 249.66363 15.274932 249.9707 14.669922 L 249.9707 0 z M 249.96875 344.71875 L 249.96875 363.38477 L 0.01171875 363.38477 L 0.01171875 363.38672 L 249.9707 363.38672 L 249.9707 344.71875 L 249.96875 344.71875 z "
       transform="matrix(0.26458333,0,0,0.26458333,24.459959,99.894913)" />
    <path
       id="rect846-3-6"
       style="fill:#ff434f;fill-opacity:1;stroke:none;stroke-width:0.372474"
       d="M 250 14.615234 C 250 14.615234 218.2918 77.570755 125.02148 63.380859 C 31.751165 49.191001 0.041015625 112.14648 0.041015625 112.14648 L 0.041015625 124.30469 C 0.46810961 123.44261 32.340325 59.785914 124.98438 74.269531 C 218.25883 88.851667 249.96875 24.154297 249.96875 24.154297 L 249.96875 344.71875 L 250 344.71875 L 250 14.615234 z "
       transform="matrix(0.26458333,0,0,0.26458333,24.459959,99.894913)" />
    <path
       id="path1648"
       style="mix-blend-mode:lighten;fill:#ffffff;fill-opacity:1;stroke:none;stroke-width:0.0999061;stroke-opacity:1"
       d="m 24.459959,132.80471 c 0,0 8.390014,-17.11764 33.068881,-13.25944 24.678867,3.85819 33.068884,-13.25944 33.068884,-13.25944 v 89.75456 H 24.459959 Z m 39.278899,28.39834" />
  </g>
</svg>
